<svg width="28" height="28" viewBox="0 0 28 28" fill="none" xmlns="http://www.w3.org/2000/svg">
<path d="M17.0583 6.33329C18.1979 6.55562 19.2451 7.11293 20.0661 7.93388C20.887 8.75484 21.4443 9.8021 21.6667 10.9416M17.0583 1.66663C19.4258 1.92963 21.6335 2.98983 23.319 4.67313C25.0044 6.35644 26.0673 8.5628 26.3333 10.93M25.1667 20.24V23.74C25.168 24.0649 25.1014 24.3865 24.9713 24.6842C24.8411 24.9819 24.6502 25.2491 24.4108 25.4688C24.1713 25.6885 23.8887 25.8557 23.5809 25.9598C23.2731 26.0639 22.9469 26.1025 22.6233 26.0733C19.0333 25.6832 15.5848 24.4565 12.555 22.4916C9.73614 20.7004 7.34623 18.3105 5.555 15.4916C3.58331 12.448 2.35629 8.98279 1.97334 5.37663C1.94418 5.054 1.98252 4.72885 2.08592 4.42185C2.18932 4.11486 2.3555 3.83276 2.5739 3.59352C2.79229 3.35427 3.05811 3.16312 3.35443 3.03223C3.65074 2.90135 3.97107 2.8336 4.295 2.83329H7.795C8.36119 2.82772 8.91009 3.02822 9.33939 3.39741C9.76869 3.76661 10.0491 4.27931 10.1283 4.83996C10.2761 5.96004 10.55 7.05981 10.945 8.11829C11.102 8.53587 11.1359 8.98969 11.0429 9.42599C10.9498 9.86228 10.7337 10.2628 10.42 10.58L8.93834 12.0616C10.5992 14.9824 13.0175 17.4008 15.9383 19.0616L17.42 17.58C17.7372 17.2663 18.1377 17.0501 18.574 16.9571C19.0103 16.864 19.4641 16.898 19.8817 17.055C20.9402 17.4499 22.0399 17.7239 23.16 17.8716C23.7267 17.9516 24.2443 18.237 24.6143 18.6737C24.9843 19.1104 25.1809 19.6678 25.1667 20.24Z" stroke="#272633" stroke-width="2" stroke-linecap="round" stroke-linejoin="round"/>
</svg>
