<svg width="25" height="25" viewBox="0 0 25 25" fill="none" xmlns="http://www.w3.org/2000/svg">
<path d="M23.875 1.125L16.0209 22.875C15.9678 22.9907 15.8827 23.0887 15.7756 23.1575C15.6685 23.2262 15.5439 23.2627 15.4167 23.2627C15.2894 23.2627 15.1649 23.2262 15.0578 23.1575C14.9507 23.0887 14.8655 22.9907 14.8125 22.875L10.5834 14.4167L2.12502 10.1875C2.00934 10.1345 1.9113 10.0494 1.84257 9.94227C1.77384 9.83517 1.7373 9.71059 1.7373 9.58333C1.7373 9.45608 1.77384 9.3315 1.84257 9.2244C1.9113 9.1173 2.00934 9.03218 2.12502 8.97917L23.875 1.125Z" stroke="#626A7C" stroke-width="1.5" stroke-linecap="round" stroke-linejoin="round"/>
</svg>
