<svg width="33" height="33" viewBox="0 0 33 33" fill="none" xmlns="http://www.w3.org/2000/svg">
<path d="M29.0431 26.8369L23.1625 20.9563C24.5783 19.0715 25.3426 16.7773 25.34 14.42C25.34 8.39875 20.4413 3.5 14.42 3.5C8.39875 3.5 3.5 8.39875 3.5 14.42C3.5 20.4413 8.39875 25.34 14.42 25.34C16.7773 25.3426 19.0715 24.5783 20.9563 23.1625L26.8369 29.0431C27.1346 29.3092 27.5228 29.4513 27.9219 29.4401C28.321 29.4289 28.7007 29.2654 28.9831 28.9831C29.2654 28.7007 29.4289 28.321 29.4401 27.9219C29.4513 27.5228 29.3092 27.1346 29.0431 26.8369ZM6.62 14.42C6.62 12.8773 7.07746 11.3693 7.93454 10.0866C8.79161 8.80385 10.0098 7.8041 11.4351 7.21374C12.8603 6.62338 14.4287 6.46891 15.9417 6.76988C17.4548 7.07084 18.8446 7.81372 19.9354 8.90457C21.0263 9.99542 21.7692 11.3852 22.0701 12.8983C22.3711 14.4113 22.2166 15.9797 21.6263 17.4049C21.0359 18.8302 20.0362 20.0484 18.7535 20.9055C17.4707 21.7625 15.9627 22.22 14.42 22.22C12.3521 22.2175 10.3696 21.3949 8.90731 19.9327C7.44506 18.4704 6.62248 16.4879 6.62 14.42Z" fill="#004BFF"/>
</svg>
