<svg width="31" height="31" viewBox="0 0 31 31" fill="none" xmlns="http://www.w3.org/2000/svg">
<g clip-path="url(#clip0_613_800)">
<path d="M24.835 2.23535C25.7257 1.85983 26.7481 1.93585 27.5771 2.44824L27.7393 2.55566C28.527 3.11598 29 4.0254 29 5V23C29 23.9746 28.527 24.884 27.7393 25.4443L27.5771 25.5518C26.7481 26.0642 25.7257 26.1402 24.835 25.7646L24.6582 25.6836L17 21.8535V26C17 27.6569 15.6569 29 14 29H12.5C11.2895 29 10.2065 28.2738 9.73926 27.1738L9.6543 26.9482L7.32422 19.96C4.32877 19.6241 2 17.0851 2 14C2 10.6863 4.68629 8 8 8H13.291L24.6582 2.31641L24.835 2.23535Z" fill="#EBF1FF" stroke="#004BFF" stroke-width="3" stroke-linejoin="round"/>
</g>
<defs>
<clipPath id="clip0_613_800">
<rect width="30" height="30" fill="white" transform="translate(0.5 0.5)"/>
</clipPath>
</defs>
</svg>
