<svg width="32" height="32" viewBox="0 0 32 32" fill="none" xmlns="http://www.w3.org/2000/svg">
<path d="M14.6663 7.84293V25.6548C14.6659 26.2075 14.4705 26.7423 14.1145 27.165C13.7584 27.5877 13.2647 27.8712 12.7202 27.9655C12.1756 28.0599 11.6153 27.959 11.1378 27.6807C10.6604 27.4024 10.2964 26.9645 10.1101 26.4442L7.2474 18.2437M7.2474 18.2437C6.11566 17.7624 5.18492 16.9063 4.6127 15.8177C4.04047 14.7291 3.86191 13.4762 4.10722 12.2711C4.35254 11.066 5.00666 9.98262 5.9589 9.20436C6.91113 8.4261 8.103 8.00075 9.33279 8.00028H11.7755C17.2424 8.00028 21.9425 6.35483 23.9999 4V22.668C21.9425 20.3131 17.2437 18.6677 11.7755 18.6677H9.33279C8.61633 18.6683 7.90708 18.5232 7.2474 18.2437ZM23.9999 17.3343C25.0608 17.3343 26.0782 16.9128 26.8284 16.1626C27.5786 15.4124 28 14.3949 28 13.334C28 12.273 27.5786 11.2556 26.8284 10.5054C26.0782 9.75516 25.0608 9.3337 23.9999 9.3337" stroke="#004BFF" stroke-width="2" stroke-linecap="round" stroke-linejoin="round"/>
</svg>
