<svg width="33" height="33" viewBox="0 0 33 33" fill="none" xmlns="http://www.w3.org/2000/svg">
<path d="M7.5 30.5C8.82608 30.5 10.0979 29.9732 11.0355 29.0355C11.9732 28.0979 12.5 26.8261 12.5 25.5C12.5 24.1739 11.9732 22.9021 11.0355 21.9645C10.0979 21.0268 8.82608 20.5 7.5 20.5C6.17392 20.5 4.90215 21.0268 3.96447 21.9645C3.02678 22.9021 2.5 24.1739 2.5 25.5C2.5 26.8261 3.02678 28.0979 3.96447 29.0355C4.90215 29.9732 6.17392 30.5 7.5 30.5ZM25.5 12.5C26.8261 12.5 28.0979 11.9732 29.0355 11.0355C29.9732 10.0979 30.5 8.82608 30.5 7.5C30.5 6.17392 29.9732 4.90215 29.0355 3.96447C28.0979 3.02678 26.8261 2.5 25.5 2.5C24.1739 2.5 22.9021 3.02678 21.9645 3.96447C21.0268 4.90215 20.5 6.17392 20.5 7.5C20.5 8.82608 21.0268 10.0979 21.9645 11.0355C22.9021 11.9732 24.1739 12.5 25.5 12.5ZM25.5 30.5C24.1739 30.5 22.9021 29.9732 21.9645 29.0355C21.0268 28.0979 20.5 26.8261 20.5 25.5C20.5 24.1739 21.0268 22.9021 21.9645 21.9645C22.9021 21.0268 24.1739 20.5 25.5 20.5C26.8261 20.5 28.0979 21.0268 29.0355 21.9645C29.9732 22.9021 30.5 24.1739 30.5 25.5C30.5 26.8261 29.9732 28.0979 29.0355 29.0355C28.0979 29.9732 26.8261 30.5 25.5 30.5ZM32.5 7.5C32.5 9.35652 31.7625 11.137 30.4497 12.4497C29.137 13.7625 27.3565 14.5 25.5 14.5C23.6435 14.5 21.863 13.7625 20.5503 12.4497C19.2375 11.137 18.5 9.35652 18.5 7.5C18.5 5.64348 19.2375 3.86301 20.5503 2.55025C21.863 1.2375 23.6435 0.5 25.5 0.5C27.3565 0.5 29.137 1.2375 30.4497 2.55025C31.7625 3.86301 32.5 5.64348 32.5 7.5ZM14.5 25.5C14.5 27.3565 13.7625 29.137 12.4497 30.4497C11.137 31.7625 9.35652 32.5 7.5 32.5C5.64348 32.5 3.86301 31.7625 2.55025 30.4497C1.2375 29.137 0.5 27.3565 0.5 25.5C0.5 23.6435 1.2375 21.863 2.55025 20.5503C3.86301 19.2375 5.64348 18.5 7.5 18.5C9.35652 18.5 11.137 19.2375 12.4497 20.5503C13.7625 21.863 14.5 23.6435 14.5 25.5ZM25.5 32.5C27.3565 32.5 29.137 31.7625 30.4497 30.4497C31.7625 29.137 32.5 27.3565 32.5 25.5C32.5 23.6435 31.7625 21.863 30.4497 20.5503C29.137 19.2375 27.3565 18.5 25.5 18.5C23.6435 18.5 21.863 19.2375 20.5503 20.5503C19.2375 21.863 18.5 23.6435 18.5 25.5C18.5 27.3565 19.2375 29.137 20.5503 30.4497C21.863 31.7625 23.6435 32.5 25.5 32.5ZM7.5 10.5C7.10603 10.5 6.71593 10.4224 6.35195 10.2716C5.98797 10.1209 5.65726 9.8999 5.37868 9.62132C5.1001 9.34274 4.87913 9.01203 4.72836 8.64805C4.5776 8.28407 4.5 7.89397 4.5 7.5C4.5 7.10603 4.5776 6.71593 4.72836 6.35195C4.87913 5.98797 5.1001 5.65726 5.37868 5.37868C5.65726 5.1001 5.98797 4.87913 6.35195 4.72836C6.71593 4.5776 7.10603 4.5 7.5 4.5C8.29565 4.5 9.05871 4.81607 9.62132 5.37868C10.1839 5.94129 10.5 6.70435 10.5 7.5C10.5 8.29565 10.1839 9.05871 9.62132 9.62132C9.05871 10.1839 8.29565 10.5 7.5 10.5ZM7.5 14.5C9.35652 14.5 11.137 13.7625 12.4497 12.4497C13.7625 11.137 14.5 9.35652 14.5 7.5C14.5 5.64348 13.7625 3.86301 12.4497 2.55025C11.137 1.2375 9.35652 0.5 7.5 0.5C5.64348 0.5 3.86301 1.2375 2.55025 2.55025C1.2375 3.86301 0.5 5.64348 0.5 7.5C0.5 9.35652 1.2375 11.137 2.55025 12.4497C3.86301 13.7625 5.64348 14.5 7.5 14.5Z" fill="#004BFF"/>
</svg>
