<svg width="19" height="25" viewBox="0 0 19 25" fill="none" xmlns="http://www.w3.org/2000/svg">
<path fill-rule="evenodd" clip-rule="evenodd" d="M0.75 8.61719C0.75 3.95854 4.71059 0.25 9.5 0.25C14.2894 0.25 18.25 3.95854 18.25 8.61719C18.25 11.2435 16.83 14.4929 15.2745 17.3015C13.6956 20.1521 11.8774 22.7204 10.9023 24.0373C10.7414 24.2572 10.531 24.4362 10.2881 24.5599C10.044 24.6841 9.77392 24.7489 9.5 24.7489C9.22608 24.7489 8.95604 24.6841 8.71191 24.5599C8.46898 24.4362 8.25857 24.2572 8.09767 24.0372C7.12261 22.7198 5.30435 20.1506 3.7255 17.2996C2.17005 14.4908 0.75 11.2417 0.75 8.61719ZM9.5 2C5.5941 2 2.5 5.00599 2.5 8.61719C2.5 10.7505 3.70495 13.6502 5.25643 16.4518C6.78035 19.2036 8.54548 21.7003 9.5 22.9903C10.4545 21.7009 12.2196 19.2051 13.7436 16.4536C15.295 13.6525 16.5 10.7525 16.5 8.61719C16.5 5.00599 13.4059 2 9.5 2Z" fill="#272633"/>
</svg>
