<svg width="33" height="32" viewBox="0 0 33 32" fill="none" xmlns="http://www.w3.org/2000/svg">
<path d="M10.25 26.625C11.2446 26.625 12.1984 26.2299 12.9017 25.5267C13.6049 24.8234 14 23.8696 14 22.875C14 21.8804 13.6049 20.9266 12.9017 20.2233C12.1984 19.5201 11.2446 19.125 10.25 19.125C9.25544 19.125 8.30161 19.5201 7.59835 20.2233C6.89509 20.9266 6.5 21.8804 6.5 22.875C6.5 23.8696 6.89509 24.8234 7.59835 25.5267C8.30161 26.2299 9.25544 26.625 10.25 26.625ZM23.75 13.125C24.7446 13.125 25.6984 12.7299 26.4017 12.0267C27.1049 11.3234 27.5 10.3696 27.5 9.375C27.5 8.38044 27.1049 7.42661 26.4017 6.72335C25.6984 6.02009 24.7446 5.625 23.75 5.625C22.7554 5.625 21.8016 6.02009 21.0983 6.72335C20.3951 7.42661 20 8.38044 20 9.375C20 10.3696 20.3951 11.3234 21.0983 12.0267C21.8016 12.7299 22.7554 13.125 23.75 13.125ZM23.75 26.625C22.7554 26.625 21.8016 26.2299 21.0983 25.5267C20.3951 24.8234 20 23.8696 20 22.875C20 21.8804 20.3951 20.9266 21.0983 20.2233C21.8016 19.5201 22.7554 19.125 23.75 19.125C24.7446 19.125 25.6984 19.5201 26.4017 20.2233C27.1049 20.9266 27.5 21.8804 27.5 22.875C27.5 23.8696 27.1049 24.8234 26.4017 25.5267C25.6984 26.2299 24.7446 26.625 23.75 26.625ZM29 9.375C29 10.7674 28.4469 12.1027 27.4623 13.0873C26.4777 14.0719 25.1424 14.625 23.75 14.625C22.3576 14.625 21.0223 14.0719 20.0377 13.0873C19.0531 12.1027 18.5 10.7674 18.5 9.375C18.5 7.98261 19.0531 6.64726 20.0377 5.66269C21.0223 4.67812 22.3576 4.125 23.75 4.125C25.1424 4.125 26.4777 4.67812 27.4623 5.66269C28.4469 6.64726 29 7.98261 29 9.375ZM15.5 22.875C15.5 24.2674 14.9469 25.6027 13.9623 26.5873C12.9777 27.5719 11.6424 28.125 10.25 28.125C8.85761 28.125 7.52226 27.5719 6.53769 26.5873C5.55312 25.6027 5 24.2674 5 22.875C5 21.4826 5.55312 20.1473 6.53769 19.1627C7.52226 18.1781 8.85761 17.625 10.25 17.625C11.6424 17.625 12.9777 18.1781 13.9623 19.1627C14.9469 20.1473 15.5 21.4826 15.5 22.875ZM23.75 28.125C25.1424 28.125 26.4777 27.5719 27.4623 26.5873C28.4469 25.6027 29 24.2674 29 22.875C29 21.4826 28.4469 20.1473 27.4623 19.1627C26.4777 18.1781 25.1424 17.625 23.75 17.625C22.3576 17.625 21.0223 18.1781 20.0377 19.1627C19.0531 20.1473 18.5 21.4826 18.5 22.875C18.5 24.2674 19.0531 25.6027 20.0377 26.5873C21.0223 27.5719 22.3576 28.125 23.75 28.125ZM10.25 11.625C9.95453 11.625 9.66194 11.5668 9.38896 11.4537C9.11598 11.3407 8.86794 11.1749 8.65901 10.966C8.45008 10.7571 8.28434 10.509 8.17127 10.236C8.0582 9.96306 8 9.67047 8 9.375C8 9.07953 8.0582 8.78694 8.17127 8.51396C8.28434 8.24098 8.45008 7.99294 8.65901 7.78401C8.86794 7.57508 9.11598 7.40934 9.38896 7.29627C9.66194 7.1832 9.95453 7.125 10.25 7.125C10.8467 7.125 11.419 7.36205 11.841 7.78401C12.2629 8.20597 12.5 8.77826 12.5 9.375C12.5 9.97174 12.2629 10.544 11.841 10.966C11.419 11.3879 10.8467 11.625 10.25 11.625ZM10.25 14.625C11.6424 14.625 12.9777 14.0719 13.9623 13.0873C14.9469 12.1027 15.5 10.7674 15.5 9.375C15.5 7.98261 14.9469 6.64726 13.9623 5.66269C12.9777 4.67812 11.6424 4.125 10.25 4.125C8.85761 4.125 7.52226 4.67812 6.53769 5.66269C5.55312 6.64726 5 7.98261 5 9.375C5 10.7674 5.55312 12.1027 6.53769 13.0873C7.52226 14.0719 8.85761 14.625 10.25 14.625Z" fill="#004BFF"/>
</svg>
